<?xml version="1.0" encoding="UTF-8" standalone="no"?>
<svg width="512" height="512" viewBox="0 0 512 512" fill="none" xmlns="http://www.w3.org/2000/svg">
  <!-- Fond circulaire avec dégradé -->
  <circle cx="256" cy="256" r="240" fill="url(#paint0_linear)"/>
  
  <!-- Bordure externe -->
  <circle cx="256" cy="256" r="240" stroke="#444444" stroke-width="8"/>
  
  <!-- Initiales EB stylisées -->
  <path d="M156 186 Q180 160 220 170 Q260 180 270 220 Q280 260 250 280 Q240 290 200 290 L156 290" 
        stroke="#FFFFFF" stroke-width="20" stroke-linecap="round" fill="none"/>
  <path d="M156 290 L156 186" stroke="#FFFFFF" stroke-width="20" stroke-linecap="round"/>
  <path d="M156 240 L230 240" stroke="#FFFFFF" stroke-width="20" stroke-linecap="round"/>
  
  <path d="M310 186 Q330 170 350 170 Q390 170 400 210 Q410 250 380 270 Q370 280 330 280 L290 280" 
        stroke="#FFFFFF" stroke-width="20" stroke-linecap="round" fill="none"/>
  <path d="M290 280 L290 186" stroke="#FFFFFF" stroke-width="20" stroke-linecap="round"/>
  <path d="M290 230 L360 230" stroke="#FFFFFF" stroke-width="20" stroke-linecap="round"/>
  
  <!-- Symbole monétaire -->
  <text x="256" y="360" font-family="Arial" font-size="120" font-weight="bold" text-anchor="middle" fill="#FFFFFF">FCFA</text>
  
  <!-- Définition du dégradé -->
  <defs>
    <linearGradient id="paint0_linear" x1="0" y1="0" x2="512" y2="512" gradientUnits="userSpaceOnUse">
      <stop offset="0" stop-color="#FF8C00"/>
      <stop offset="1" stop-color="#E67300"/>
    </linearGradient>
  </defs>
</svg>
